# xmcd CD database file
#
# Track frame offsets:
#	150
#	21000
#	38850
#
# Disc length: 793 seconds
#
# Revision: 2
# Processed by: cddbd v1.5PL3 Copyright (c) Steve Scherf et al.
# Submitted via: CDex 1.50beta9
#
DISCID=1a031703
DTITLE=松浦亜弥 - 100回のKISS
DYEAR=2000
DGENRE=JPop
TTITLE0=100回のKISS
TTITLE1=MERRY X'MAS FOR YOU
TTITLE2=100回のKISS （Instrumental）
EXTD=YEAR: 2000
EXTT0=
EXTT1=
EXTT2=
PLAYORDER=
